<?xml version="1.0" encoding="utf-8"?><svg xml:space="preserve" viewBox="0 0 100 100" y="0" x="0" xmlns="http://www.w3.org/2000/svg" id="圖層_1" version="1.1" width="128px" height="128px" xmlns:xlink="http://www.w3.org/1999/xlink" style="width:100%;height:100%;background-size:initial;background-repeat-y:initial;background-repeat-x:initial;background-position-y:initial;background-position-x:initial;background-origin:initial;background-image:initial;background-color:rgb(255, 255, 255);background-clip:initial;background-attachment:initial;animation-play-state:paused" ><g class="ldl-scale" style="transform-origin:50% 50%;transform:rotate(0deg) scale(0.8, 0.8);animation-play-state:paused" ><path stroke-miterlimit="10" stroke-width="4" stroke="#666" fill="#e0e0e0" d="M92.5 66.4c0-2-.1-3.9-.4-5.9-2.8-20.1-19.7-35.6-40-36.6C27.7 22.6 7.5 42.1 7.5 66.3v.1c0 5.5 4.6 9.9 10.1 9.9h64.9c5.4-.1 10-4.4 10-9.9z" style="stroke:rgb(102, 102, 102);fill:rgb(224, 224, 224);animation-play-state:paused" ></path>
<path d="M50 23.8v16.9" stroke-miterlimit="10" stroke-linecap="round" stroke-width="2.72" stroke="#666" fill="none" style="stroke:rgb(102, 102, 102);animation-play-state:paused" ></path>
<path d="M28.8 29.5l4.2 7.3" stroke-miterlimit="10" stroke-linecap="round" stroke-width="2.72" stroke="#666" fill="none" style="stroke:rgb(102, 102, 102);animation-play-state:paused" ></path>
<path d="M13.2 45l7.3 4.2" stroke-miterlimit="10" stroke-linecap="round" stroke-width="2.72" stroke="#666" fill="none" style="stroke:rgb(102, 102, 102);animation-play-state:paused" ></path>
<path d="M71.2 29.5L67 36.8" stroke-miterlimit="10" stroke-linecap="round" stroke-width="2.72" stroke="#666" fill="none" style="stroke:rgb(102, 102, 102);animation-play-state:paused" ></path>
<path d="M86.8 45l-7.3 4.2" stroke-miterlimit="10" stroke-linecap="round" stroke-width="2.72" stroke="#666" fill="none" style="stroke:rgb(102, 102, 102);animation-play-state:paused" ></path>
<path fill="#333" d="M46.7 68.5l14.7-27.8c.2-.5.8-.6 1.3-.4.5.2.7.7.5 1.2l-9.9 29.9c-1.7 3.8-8.3 1-6.6-2.9z" style="fill:rgb(51, 51, 51);animation-play-state:paused" ></path>
<metadata xmlns:d="https://loading.io/stock/" style="animation-play-state:paused" ><d:name style="animation-play-state:paused" >meter</d:name>
<d:tags style="animation-play-state:paused" >gauge,dashboard,car,temperature,speed,fuel,meter,transportation</d:tags>
<d:license style="animation-play-state:paused" >by</d:license>
<d:slug style="animation-play-state:paused" >ne9438</d:slug></metadata></g><!-- generated by https://loading.io/ --></svg>