<?xml version="1.0" encoding="utf-8"?><svg xml:space="preserve" viewBox="0 0 100 100" y="0" x="0" xmlns="http://www.w3.org/2000/svg" id="圖層_1" version="1.1" width="128px" height="128px" xmlns:xlink="http://www.w3.org/1999/xlink" style="width:100%;height:100%;background-size:initial;background-repeat-y:initial;background-repeat-x:initial;background-position-y:initial;background-position-x:initial;background-origin:initial;background-image:initial;background-color:rgb(255, 255, 255);background-clip:initial;background-attachment:initial;animation-play-state:paused" ><g class="ldl-scale" style="transform-origin:50% 50%;transform:rotate(0deg) scale(0.8, 0.8);animation-play-state:paused" ><g style="animation-play-state:paused" ><path fill="#333" d="M65.877 57.503a4.234 4.234 0 0 1-4.234-4.234V26.102c0-4.669-3.799-8.468-8.468-8.468h-6.352c-4.669 0-8.468 3.799-8.468 8.468V53.27a4.234 4.234 0 1 1-8.468 0V26.102c0-9.338 7.597-16.935 16.935-16.935h6.352c9.338 0 16.935 7.597 16.935 16.935V53.27a4.23 4.23 0 0 1-4.232 4.233z" style="fill:rgb(51, 51, 51);animation-play-state:paused" ></path></g>
<path fill="#f8b26a" d="M71.875 87.563h-43.75a9.584 9.584 0 0 1-9.584-9.584V43.218a9.584 9.584 0 0 1 9.584-9.584h43.749a9.584 9.584 0 0 1 9.584 9.584v34.761c.001 5.293-4.29 9.584-9.583 9.584z" style="fill:rgb(248, 178, 106);animation-play-state:paused" ></path>
<metadata xmlns:d="https://loading.io/stock/" style="animation-play-state:paused" ><d:name style="animation-play-state:paused" >lock</d:name>
<d:tags style="animation-play-state:paused" >lock,secure,private,security,guard,https,ssl,encrypt,protect,locksmith</d:tags>
<d:license style="animation-play-state:paused" >by</d:license>
<d:slug style="animation-play-state:paused" >ud39x</d:slug></metadata></g><!-- generated by https://loading.io/ --></svg>