<svg xmlns="http://www.w3.org/2000/svg" viewBox="0 0 113.67 99.67"><defs><style>.cls-1{fill:#333;}.cls-2{font-size:28.1px;font-family:ColonnaMT, Colonna MT;}.cls-3{letter-spacing:-0.02em;}.cls-4{letter-spacing:0.01em;}.cls-5{letter-spacing:0em;}.cls-6{font-size:5px;font-family:Elephant-Regular, Elephant;}</style></defs><title>LOGO</title><g id="OBJECTS"><path class="cls-1" d="M60.46,55.1a3.9,3.9,0,0,0,2.36-.65,12,12,0,0,0,2-1.5,30,30,0,0,0,3.38-3.71,58.76,58.76,0,0,0,5.45-8.42,37.49,37.49,0,0,0,2.07-4.56,14.62,14.62,0,0,0,1-4.87A4.88,4.88,0,0,0,76.23,29a7.91,7.91,0,0,0-1.77-1.74,35.9,35.9,0,0,0-4.08-2.93,10,10,0,0,0-4.58-1.71A1.83,1.83,0,0,0,64,23.79c-.25.74-.45,1.6-.68,2.39-.88,3.24-1.68,6.5-2.44,9.77s-1.41,6.56-1.9,9.88a33,33,0,0,0-.4,5,9.69,9.69,0,0,0,.31,2.48A2.18,2.18,0,0,0,60.46,55.1Zm0,.06a2.26,2.26,0,0,1-1.61-1.81,11.24,11.24,0,0,1-.37-2.5,34.75,34.75,0,0,1,.18-5.06,82.91,82.91,0,0,1,1.71-10c.72-3.29,1.59-6.54,2.51-9.78.24-.82.43-1.6.74-2.44a2.37,2.37,0,0,1,.89-1,2.49,2.49,0,0,1,1.32-.34,10.35,10.35,0,0,1,4.73,1.87,36.14,36.14,0,0,1,4.06,3l.95.83a3.64,3.64,0,0,1,.83,1A5.06,5.06,0,0,1,77,31.39a16.08,16.08,0,0,1-.92,5,34.2,34.2,0,0,1-2,4.67,43.92,43.92,0,0,1-5.6,8.42,30.64,30.64,0,0,1-3.56,3.6,14.05,14.05,0,0,1-2.06,1.47A4,4,0,0,1,60.45,55.16Z"/><path class="cls-1" d="M44.87,17.65a1.07,1.07,0,0,0,.9,1.29c.86.07,1.59-1.12,1.47-1.54C47.08,16.82,45.15,17,44.87,17.65Z"/><path class="cls-1" d="M48.46,19.37c.62,1,2.33,2.71,3.8,1.16,1.85-2,.59-5.36-.61-5.69C50,14.4,47.49,17.73,48.46,19.37Z"/><path class="cls-1" d="M51.29,11.88c.53.89,1.82.75,3.08-.58,1.59-1.68.57-4.08-.46-4.35C52.51,6.57,50.46,10.47,51.29,11.88Z"/><path class="cls-1" d="M45.37,12.52a2.08,2.08,0,0,0,1.48,3c2.24.31,3.59-1.74,3.21-2.76C49.55,11.38,46,11,45.37,12.52Z"/><path class="cls-1" d="M53,13.69a1.07,1.07,0,0,0,.9,1.29c.86.07,1.59-1.12,1.47-1.54C55.2,12.87,53.27,13,53,13.69Z"/><path class="cls-1" d="M56.86,15.56c-.56-.44-2.1,0-2.61,1.23-.64,1.5.77,3.12,1.51,3C56.78,19.71,57.75,16.26,56.86,15.56Z"/><path class="cls-1" d="M48.34,5.65a1.07,1.07,0,0,0,.9,1.29c.86.07,1.59-1.12,1.47-1.54C50.55,4.82,48.62,5,48.34,5.65Z"/><path class="cls-1" d="M46.62,8.62a1.49,1.49,0,0,0,1.26,1.8c1.2.09,2.21-1.56,2.05-2.15C49.71,7.46,47,7.68,46.62,8.62Z"/><path class="cls-1" d="M49.72,60.35a4.62,4.62,0,0,1-2.26,1.16,15.46,15.46,0,0,1-2.53.39,31.55,31.55,0,0,1-5.13-.05,40.84,40.84,0,0,1-10-2.12,25.38,25.38,0,0,1-4.67-2.15,8.16,8.16,0,0,1-3.57-3.65,3.23,3.23,0,0,1-.2-1.29c0-.44.12-.85.18-1.27l.38-2.53c.27-1.68.58-3.37,1-5A17.48,17.48,0,0,1,24.7,39a3.94,3.94,0,0,1,.89-1A1.75,1.75,0,0,1,27,37.61a3,3,0,0,1,1.22.61l1,.73c2.78,2,5.55,4,8.22,6.11a84.7,84.7,0,0,1,7.7,6.76,35.6,35.6,0,0,1,3.37,3.87,11.62,11.62,0,0,1,1.31,2.21A2.28,2.28,0,0,1,49.72,60.35Zm0,0a2.21,2.21,0,0,0,.06-2.38,9.94,9.94,0,0,0-1.35-2.15,33.81,33.81,0,0,0-3.51-3.69c-2.5-2.3-5.13-4.47-7.79-6.58s-5.39-4.16-8.15-6.15l-1-.75a2.58,2.58,0,0,0-1-.56c-.73-.16-1.4.47-1.85,1.14a16.77,16.77,0,0,0-1.86,4.68c-.44,1.64-.78,3.31-1.08,5-.15.84-.29,1.68-.41,2.52-.05.42-.14.85-.16,1.26a3,3,0,0,0,.2,1.21,7.65,7.65,0,0,0,3.55,3.43,27.37,27.37,0,0,0,4.66,2,52.76,52.76,0,0,0,9.91,2.23,30.89,30.89,0,0,0,5.08.25,13.24,13.24,0,0,0,2.52-.34A4.55,4.55,0,0,0,49.68,60.31Z"/><path class="cls-1" d="M51.7,57.1a3.41,3.41,0,0,1-2.54.17,13.49,13.49,0,0,1-2.43-.91,30.56,30.56,0,0,1-4.44-2.67,45.82,45.82,0,0,1-7.68-7,41.19,41.19,0,0,1-3.18-4.1A21.15,21.15,0,0,1,29,38.05a7.52,7.52,0,0,1-.49-2.56A5,5,0,0,1,29.32,33a22.94,22.94,0,0,1,3-4.21,13,13,0,0,1,1.94-1.76,5.14,5.14,0,0,1,2.46-1,2.83,2.83,0,0,1,2.46,1.13q.82,1,1.6,2a78.08,78.08,0,0,1,5.69,8.67A62.82,62.82,0,0,1,51,47.22a32.65,32.65,0,0,1,1.45,5,12.2,12.2,0,0,1,.26,2.58A2.73,2.73,0,0,1,51.7,57.1Zm0,0a2.66,2.66,0,0,0,.91-2.27,11,11,0,0,0-.31-2.55,31.45,31.45,0,0,0-1.63-4.88A85.84,85.84,0,0,0,46,38.15a95.07,95.07,0,0,0-5.62-8.63c-1.08-1.26-1.9-3.18-3.6-3a4.72,4.72,0,0,0-2.26.9,12.63,12.63,0,0,0-1.92,1.66,21.76,21.76,0,0,0-3.08,4.09,4.82,4.82,0,0,0-.84,2.35A7,7,0,0,0,29.15,38a27.5,27.5,0,0,0,5.78,8.44,65,65,0,0,0,7.58,7,29.8,29.8,0,0,0,4.29,2.83,11.2,11.2,0,0,0,2.38,1A3.34,3.34,0,0,0,51.67,57.05Z"/><path class="cls-1" d="M53.51,54.9a3.3,3.3,0,0,1-2.31-.7,12.32,12.32,0,0,1-1.85-1.62,28.21,28.21,0,0,1-3-3.85A45.75,45.75,0,0,1,41.8,40a36.18,36.18,0,0,1-2.39-9.51,8.36,8.36,0,0,1,.75-4.82,10.18,10.18,0,0,1,1.75-1.75,15,15,0,0,1,2-1.45,7.2,7.2,0,0,1,2.3-1,2.7,2.7,0,0,1,2.44.63,5,5,0,0,1,1.19,2.23l.74,2.34c1,3.12,1.87,6.26,2.65,9.44a79.33,79.33,0,0,1,1.87,9.63,32.93,32.93,0,0,1,.28,4.9,10.83,10.83,0,0,1-.33,2.43,3.55,3.55,0,0,1-.51,1.12A1.8,1.8,0,0,1,53.51,54.9Zm0-.06a1.73,1.73,0,0,0,1-.65,3.47,3.47,0,0,0,.48-1.1,9.44,9.44,0,0,0,.26-2.41,31.42,31.42,0,0,0-.49-4.85c-.54-3.21-1.28-6.38-2.07-9.54S51,30,50.07,26.86l-.7-2.34a4.58,4.58,0,0,0-1-2.07,2.29,2.29,0,0,0-2.08-.58,6.87,6.87,0,0,0-2.21.86,14.74,14.74,0,0,0-2,1.39,10.07,10.07,0,0,0-1.73,1.67,7.61,7.61,0,0,0-.74,4.69,33.79,33.79,0,0,0,2.63,9.35,63.85,63.85,0,0,0,4.37,8.7,27.58,27.58,0,0,0,2.85,3.94,10.5,10.5,0,0,0,1.79,1.64A3.23,3.23,0,0,0,53.5,54.85Z"/><path class="cls-1" d="M54.69,53.4a4.07,4.07,0,0,1-1.84-1.75,14.73,14.73,0,0,1-1.12-2.31,32.19,32.19,0,0,1-1.46-4.92,45.86,45.86,0,0,1-1-10.21,35.4,35.4,0,0,1,.41-5.13,16.88,16.88,0,0,1,1.46-4.93,5.24,5.24,0,0,1,1.65-2,6.58,6.58,0,0,1,2.46-.75,33.3,33.3,0,0,1,5.11-.49,12.91,12.91,0,0,1,5.11.75,2.65,2.65,0,0,1,1.71,2A3.88,3.88,0,0,1,67,25l-.28,1.25c-.77,3.33-1.58,6.65-2.54,9.93a84.81,84.81,0,0,1-3.34,9.7,35.67,35.67,0,0,1-2.3,4.59,11.64,11.64,0,0,1-1.55,2A2.28,2.28,0,0,1,54.69,53.4Zm0-.05a2.21,2.21,0,0,0,2.22-.85,10,10,0,0,0,1.48-2.06,33.86,33.86,0,0,0,2.08-4.65c1.18-3.19,2.19-6.45,3.14-9.72s1.81-6.57,2.6-9.89a10.18,10.18,0,0,0,.45-2.42A2.22,2.22,0,0,0,65.26,22a12.39,12.39,0,0,0-4.94-.82,33.06,33.06,0,0,0-5.08.4,6,6,0,0,0-2.4.7,5.05,5.05,0,0,0-1.56,1.93A15.44,15.44,0,0,0,50,29.13a39.88,39.88,0,0,0-.28,5.08,61.57,61.57,0,0,0,.9,10.14,31.5,31.5,0,0,0,1.26,4.94,12.69,12.69,0,0,0,1.07,2.31A4,4,0,0,0,54.71,53.34Z"/><path class="cls-1" d="M57,61.25c-.2.44-7.81,1-6.51-.43S55.36,60,55.36,60,51,57.19,52.56,57.1s3.75,1.81,3.75,1.81-.69-5,1-4,.78,3.82.78,3.82,2.11-3.12,2.76-1.73S57,61.25,57,61.25Z"/><path class="cls-1" d="M72.17,55.2A1.67,1.67,0,0,1,71,54.61a6.43,6.43,0,0,1-.81-1.07A14.1,14.1,0,0,1,69,51.11a18.34,18.34,0,0,1-1.15-5.26,9.64,9.64,0,0,1,.89-5.28,2.82,2.82,0,0,1,1-.94q.57-.36,1.15-.69a24.28,24.28,0,0,1,2.39-1.23,8.22,8.22,0,0,1,1.29-.44,2,2,0,0,1,1.46.08c.55.35.46,1,.44,1.42l-.09,1.34c-.13,1.78-.3,3.56-.56,5.33a38.54,38.54,0,0,1-1,5.26,20.18,20.18,0,0,1-.88,2.54,7.46,7.46,0,0,1-.63,1.19A1.51,1.51,0,0,1,72.17,55.2Zm0-.06a1.44,1.44,0,0,0,1-.76,5.6,5.6,0,0,0,.57-1.19,18.41,18.41,0,0,0,.66-2.57c.33-1.74.58-3.5.82-5.26s.43-3.53.6-5.3l.13-1.33c.06-.46.08-.84-.18-1a1.66,1.66,0,0,0-1.14-.08,7.89,7.89,0,0,0-1.25.36A18.2,18.2,0,0,0,71,39.11c-.75.46-1.64.79-2.07,1.56a5.55,5.55,0,0,0-.67,2.51,15.09,15.09,0,0,0,.08,2.63,29.33,29.33,0,0,0,1,5.18,13.52,13.52,0,0,0,1,2.46A4.91,4.91,0,0,0,71,54.55,1.6,1.6,0,0,0,72.17,55.14Z"/><path class="cls-1" d="M86.62,36.2a.74.74,0,0,1-.68.63c-.43,0-.58-.7-.44-.92S86.6,35.82,86.62,36.2Z"/><path class="cls-1" d="M84.54,36.88c-.49.51-1.63,1.3-2.07.37a2.6,2.6,0,0,1,1.33-3C84.68,34.13,85.32,36.07,84.54,36.88Z"/><path class="cls-1" d="M84.51,32.71c-.42.44-1,.28-1.4-.51a1.82,1.82,0,0,1,1-2.29C84.88,29.79,85.18,32,84.51,32.71Z"/><path class="cls-1" d="M87.3,33.43A1.43,1.43,0,0,1,86,34.94,1.13,1.13,0,0,1,85,33.26C85.46,32.55,87.28,32.57,87.3,33.43Z"/><path class="cls-1" d="M83.36,33.56a.74.74,0,0,1-.68.63c-.43,0-.58-.7-.44-.92S83.34,33.19,83.36,33.56Z"/><path class="cls-1" d="M81.11,34.31c.36-.2,1,.16,1.06.83,0,.84-.94,1.61-1.29,1.52S80.55,34.62,81.11,34.31Z"/><path class="cls-1" d="M87.09,29.58a.74.74,0,0,1-.68.63c-.43,0-.58-.7-.44-.92S87.07,29.2,87.09,29.58Z"/><path class="cls-1" d="M87.4,31.27a1,1,0,0,1-.95.88c-.61,0-.8-1-.62-1.28S87.37,30.75,87.4,31.27Z"/><path class="cls-1" d="M76.53,58.63a1.85,1.85,0,0,0,1.07.8,6,6,0,0,0,1.34.32,15.89,15.89,0,0,0,2.76.08,30.16,30.16,0,0,0,5.45-.76,12.68,12.68,0,0,0,2.59-.87,3.5,3.5,0,0,0,1.92-1.79,30.91,30.91,0,0,0,.82-5.47,9.71,9.71,0,0,0,0-1.36,1.88,1.88,0,0,0-.39-1.14c-.23-.21-.61,0-1,.25l-1.23.65c-1.63.87-3.26,1.76-4.87,2.66s-3.21,1.84-4.77,2.83a21.87,21.87,0,0,0-2.26,1.6,6.5,6.5,0,0,0-1,1A1.37,1.37,0,0,0,76.53,58.63Zm-.05,0a1.43,1.43,0,0,1,.37-1.31,8.77,8.77,0,0,1,.95-1,24.06,24.06,0,0,1,2.15-1.79,44.46,44.46,0,0,1,4.69-3c1.61-.94,3.25-1.8,4.92-2.63l1.25-.62a5.61,5.61,0,0,1,.68-.29.88.88,0,0,1,.87.16,2.17,2.17,0,0,1,.48,1.44,10.05,10.05,0,0,1,0,1.42,54.6,54.6,0,0,1-.94,5.51,4,4,0,0,1-2,2,12.53,12.53,0,0,1-2.62,1.05,19.23,19.23,0,0,1-5.56.66,16.58,16.58,0,0,1-2.79-.29,8.23,8.23,0,0,1-1.35-.38A1.91,1.91,0,0,1,76.48,58.65Z"/><path class="cls-1" d="M76.14,56.76a1.59,1.59,0,0,0,1.35.19,6.81,6.81,0,0,0,1.37-.42,20.35,20.35,0,0,0,2.56-1.3q2.48-1.47,4.81-3.16a19.94,19.94,0,0,0,4.24-3.86,3.22,3.22,0,0,0,.83-2.6,9.35,9.35,0,0,0-.91-2.69,3.75,3.75,0,0,0-.83-1.09,1.11,1.11,0,0,0-1.13-.26,4.11,4.11,0,0,0-1.08.8l-1.07,1c-1.41,1.31-2.76,2.67-4.08,4.07s-2.57,2.86-3.77,4.36a22.69,22.69,0,0,0-1.66,2.35,7.46,7.46,0,0,0-.63,1.29C76,55.84,75.84,56.38,76.14,56.76Zm0,0a1.52,1.52,0,0,1,0-1.42A9.69,9.69,0,0,1,76.64,54a24.64,24.64,0,0,1,1.51-2.49A39.06,39.06,0,0,1,81.79,47a52.35,52.35,0,0,1,4.14-4.08L87,42a4.16,4.16,0,0,1,1.27-.85,1.54,1.54,0,0,1,1.54.39,4.1,4.1,0,0,1,.87,1.24,9.52,9.52,0,0,1,.82,2.81,3.52,3.52,0,0,1-.9,2.73,24,24,0,0,1-4.11,4.11,27.61,27.61,0,0,1-4.9,3.13,21.34,21.34,0,0,1-2.69,1.12A9.94,9.94,0,0,1,77.5,57,1.65,1.65,0,0,1,76.1,56.8Z"/><path class="cls-1" d="M75.63,55.46a1.91,1.91,0,0,0,1.29-.28,7.24,7.24,0,0,0,1.13-.76,20,20,0,0,0,2-1.88q1.86-2,3.55-4.16a25.42,25.42,0,0,0,3-4.55,6.1,6.1,0,0,0,.74-2.58A2,2,0,0,0,86.89,40,6,6,0,0,0,86,39,2.19,2.19,0,0,0,85,38.39a1.27,1.27,0,0,0-1.07.42,5.63,5.63,0,0,0-.76,1.07L82.39,41l-2.86,4.69c-.93,1.58-1.85,3.16-2.71,4.77A22.18,22.18,0,0,0,75.64,53a6.16,6.16,0,0,0-.37,1.31C75.21,54.7,75.19,55.27,75.63,55.46Zm0,.05c-.5-.2-.48-.82-.44-1.24a8.31,8.31,0,0,1,.32-1.35,24.53,24.53,0,0,1,1-2.59A45.9,45.9,0,0,1,79,45.44c.92-1.59,1.91-3.15,2.91-4.68a15.6,15.6,0,0,1,1.65-2.27A1.67,1.67,0,0,1,85,38a2.51,2.51,0,0,1,1.24.77,6.3,6.3,0,0,1,.84,1.13,2.45,2.45,0,0,1,.46,1.33,7.22,7.22,0,0,1-.76,2.67A29.84,29.84,0,0,1,84,48.66a28.21,28.21,0,0,1-3.68,4.13,21,21,0,0,1-2.15,1.75,10.56,10.56,0,0,1-1.18.73A2,2,0,0,1,75.61,55.51Z"/><path class="cls-1" d="M75.3,54.58a4.59,4.59,0,0,0,2-1.79,20.56,20.56,0,0,0,1.38-2.35q1.22-2.43,2.19-5a19.87,19.87,0,0,0,1.4-5.23,4.7,4.7,0,0,0-.08-1.33,1.3,1.3,0,0,0-.73-1,11.68,11.68,0,0,0-2.62-.7,7.35,7.35,0,0,0-2.66,0,1.92,1.92,0,0,0-1.06.58A1.88,1.88,0,0,0,74.76,39c-.21,1.81-.35,3.63-.51,5.44S74,48,73.94,49.84A18.74,18.74,0,0,0,74,52.56a4.86,4.86,0,0,0,.31,1.31C74.49,54.27,74.84,54.7,75.3,54.58Zm0,.05c-.5.15-.91-.32-1.07-.73a6.64,6.64,0,0,1-.39-1.32,20.81,20.81,0,0,1-.32-2.74,41.25,41.25,0,0,1,.13-5.49c.12-1.83.36-3.64.6-5.45a2.35,2.35,0,0,1,.5-1.39,2.32,2.32,0,0,1,1.32-.67,7.57,7.57,0,0,1,2.78.12,14.49,14.49,0,0,1,2.64.78,1.56,1.56,0,0,1,.84,1.12,4.89,4.89,0,0,1,.12,1.39,19.49,19.49,0,0,1-1.16,5.38,26.52,26.52,0,0,1-2.35,5,21.42,21.42,0,0,1-1.56,2.27A4.81,4.81,0,0,1,75.32,54.64Z"/><path class="cls-1" d="M72.75,58.66c0,.25,3.65,1,3.27.19s-2.23-.76-2.23-.76,2.62-1.2,1.89-1.35a4.63,4.63,0,0,0-2.17.72s1.25-2.64.26-2.22-1.07,2-1.07,2-.47-1.8-1-1.1S72.75,58.66,72.75,58.66Z"/><text class="cls-2" transform="translate(5.09 82.74) scale(0.68 1)"><tspan class="cls-3">R</tspan><tspan x="18.62" y="0">o</tspan><tspan class="cls-4" x="32.67" y="0">n</tspan><tspan class="cls-5" x="48.22" y="0">a Clothes</tspan></text><text class="cls-6" transform="translate(38.28 93.74) scale(0.68 1)">CLOTHING STORE</text></g></svg>