<?xml version="1.0" encoding="utf-8"?><svg xml:space="preserve" viewBox="0 0 100 100" y="0" x="0" xmlns="http://www.w3.org/2000/svg" id="圖層_1" version="1.1" width="128px" height="128px" xmlns:xlink="http://www.w3.org/1999/xlink" style="width:100%;height:100%;background-size:initial;background-repeat-y:initial;background-repeat-x:initial;background-position-y:initial;background-position-x:initial;background-origin:initial;background-image:initial;background-color:rgb(255, 255, 255);background-clip:initial;background-attachment:initial;animation-play-state:paused" ><g class="ldl-scale" style="transform-origin:50% 50%;transform:rotate(0deg) scale(0.8, 0.8);animation-play-state:paused" ><path fill="#ebb885" d="M90.12 51.632L59.332 69.407 47.461 48.845 78.248 31.07a4.727 4.727 0 0 1 6.457 1.73l7.144 12.374a4.727 4.727 0 0 1-1.729 6.458z" style="fill:rgb(235, 184, 133);animation-play-state:paused" ></path>
<path fill="#ebb885" d="M67.368 33.357L45.731 45.849l-9.508-16.468a4.728 4.728 0 0 1 1.73-6.458l17.543-10.129a4.727 4.727 0 0 1 6.457 1.73L69.098 26.9a4.726 4.726 0 0 1-1.73 6.457z" style="fill:rgb(235, 184, 133);animation-play-state:paused" ></path>
<g style="animation-play-state:paused" ><path fill="#666" d="M58.985 78.648c-.67 0-1.343-.088-2.007-.266a7.651 7.651 0 0 1-4.678-3.59L29.401 35.13l-4.395-.72a2.974 2.974 0 0 1 .962-5.868l7.174 1.177L57.447 71.82c.235.407.615.699 1.069.82.455.123.929.061 1.335-.175l28.073-16.208a2.972 2.972 0 1 1 2.972 5.148L62.824 77.612a7.65 7.65 0 0 1-3.839 1.036z" style="fill:rgb(102, 102, 102);animation-play-state:paused" ></path></g>
<g style="animation-play-state:paused" ><path fill="#333" d="M21.955 36.791c-.319 0-.643-.026-.969-.079l-8.503-1.394a5.945 5.945 0 0 1 1.923-11.733l8.503 1.394a5.945 5.945 0 0 1-.954 11.812z" style="fill:rgb(51, 51, 51);animation-play-state:paused" ></path></g>
<circle r="10.799" stroke-miterlimit="10" stroke-linecap="round" stroke-width="6" stroke="#333" fill="#fff" cy="77.054" cx="57.247" transform="rotate(-30 57.243 77.056)" style="stroke:rgb(51, 51, 51);fill:rgb(255, 255, 255);animation-play-state:paused" ></circle>
<metadata xmlns:d="https://loading.io/stock/" style="animation-play-state:paused" ><d:name style="animation-play-state:paused" >stroller</d:name>
<d:tags style="animation-play-state:paused" >cart,goods,shipping,cargo,commodity,stroller,business</d:tags>
<d:license style="animation-play-state:paused" >pro</d:license>
<d:slug style="animation-play-state:paused" >tuaqx9</d:slug></metadata></g><!-- generated by https://loading.io/ --></svg>